# xmcd
#
# Track frame offsets:
#	183
#	11710
#	25933
#	39613
#	51738
#	65563
#	78918
#	91050
#	104013
#	116613
#	130350
#	144995
#	157458
#	170058
#	181950
#	194955
#	208420
#	219135
#	232808
#	244960
#	257205
#	268845
#	281400
#	294048
#
# Disc length: 4083 seconds
#
# Revision: 1
# Processed by: cddbd v1.4b41PL2 Copyright (c) Steve Scherf et al.
# Submitted via: audiograbber 1.80
#
DISCID=780ff118
DTITLE=Little Walter - Boss Blues Harmonica
DYEAR=1900
DGENRE=
TTITLE0=My Babe
TTITLE1=Sad Hours
TTITLE2=You're So Fine
TTITLE3=Last Night
TTITLE4=Blues With a Feeling
TTITLE5=Can't Hold out Mush Longer
TTITLE6=Juke
TTITLE7=Mean Old World
TTITLE8=Off the Wall
TTITLE9=You Better Watch Yourself
TTITLE10=Blue Light
TTITLE11=Tell Me Mama
TTITLE12=Black Track
TTITLE13=It's Too Late Brother
TTITLE14=Just a Feeling
TTITLE15=Teenage Beat
TTITLE16=Just Your Fool
TTITLE17=Flying Saucer
TTITLE18=I Got to Go
TTITLE19=Shake Dancer
TTITLE20=Too Late
TTITLE21=Thunderbird
TTITLE22=Ah'w Baby
TTITLE23=Boom Boom, Out Go the Lights
EXTD=Vogue VG651 600118
EXTT0=
EXTT1=
EXTT2=
EXTT3=
EXTT4=
EXTT5=
EXTT6=
EXTT7=
EXTT8=
EXTT9=
EXTT10=
EXTT11=
EXTT12=
EXTT13=
EXTT14=
EXTT15=
EXTT16=
EXTT17=
EXTT18=
EXTT19=
EXTT20=
EXTT21=
EXTT22=
EXTT23=
PLAYORDER=
